<svg xmlns="http://www.w3.org/2000/svg" width="46.7" height="42.757" viewBox="0 0 46.7 42.757">
  <g id="Сгруппировать_4" data-name="Сгруппировать 4" transform="translate(-592.15 -1907.823)">
    <path id="Op_component_1" data-name="Op component 1" d="M637.064,1913.006a2.666,2.666,0,0,0-2.092-1.015H607.854a2.665,2.665,0,0,0-2.538,3.478l4.991,15.607a1.657,1.657,0,0,0,1.579,1.154h20.3a1.658,1.658,0,0,0,1.612-1.271l3.761-15.68A2.67,2.67,0,0,0,637.064,1913.006Z" fill="#262626"/>
    <g id="Сгруппировать_3" data-name="Сгруппировать 3">
      <g id="Сгруппировать_2" data-name="Сгруппировать 2">
        <path id="Op_component_2" data-name="Op component 2" d="M636.423,1935.184H610.236a2.127,2.127,0,0,1-2.029-1.476L601,1911.355a5.077,5.077,0,0,0-4.846-3.532h-1.575a2.429,2.429,0,0,0,0,4.857h1.575a.235.235,0,0,1,.225.164l7.208,22.352a6.968,6.968,0,0,0,6.65,4.845h26.187a2.429,2.429,0,0,0,0-4.857Z" fill="#262626"/>
        <circle id="Op_component_3" data-name="Op component 3" cx="3.87" cy="3.87" r="3.87" transform="translate(608.09 1942.84)" fill="#262626"/>
        <circle id="Op_component_4" data-name="Op component 4" cx="3.87" cy="3.87" r="3.87" transform="translate(628.42 1942.84)" fill="#262626"/>
      </g>
    </g>
  </g>
</svg>
